# Blender v2.76 (sub 0) OBJ File: 'Race_Finish.blend'
# www.blender.org
mtllib Race_Finish.mtl
o Cube.001
v -18.822395 2.868330 0.719395
v -18.822395 4.868330 0.719395
v -18.822395 2.868330 0.594524
v -18.822395 4.868330 0.594524
v 18.994228 2.868330 0.719395
v 18.994228 4.868330 0.719395
v 18.994228 2.868330 0.594524
v 18.994228 4.868330 0.594524
vt -0.946497 0.000000
vt 1.946497 0.000000
vt 1.946497 1.000000
vt -0.946497 1.000000
vt 0.000000 0.000000
vt 1.000000 0.000000
vt 1.000000 1.000000
vt 0.000000 1.000000
vn 0.000000 0.000000 -1.000000
vn -1.000000 0.000000 0.000000
vn 1.000000 0.000000 0.000000
vn 0.000000 0.000000 1.000000
vn 0.000000 -1.000000 0.000000
vn 0.000000 1.000000 0.000000
usemtl Material
s off
f 4/1/1 8/2/1 7/3/1 3/4/1
usemtl Material_NONE
f 2/5/2 4/6/2 3/7/2 1/8/2
f 8/5/3 6/6/3 5/7/3 7/8/3
f 6/5/4 2/6/4 1/7/4 5/8/4
f 1/5/5 3/6/5 7/7/5 5/8/5
f 6/5/6 8/6/6 4/7/6 2/8/6
o Cylinder_Cylinder.001
v 19.170965 -0.272607 0.180330
v 19.170965 6.214513 0.180330
v 19.268511 -0.272607 0.189937
v 19.268511 6.214513 0.189937
v 19.362307 -0.272607 0.218390
v 19.362307 6.214513 0.218390
v 19.448750 -0.272607 0.264595
v 19.448750 6.214513 0.264595
v 19.524519 -0.272607 0.326776
v 19.524519 6.214513 0.326776
v 19.586700 -0.272607 0.402545
v 19.586700 6.214513 0.402545
v 19.632904 -0.272607 0.488988
v 19.632904 6.214513 0.488988
v 19.661358 -0.272607 0.582785
v 19.661358 6.214513 0.582785
v 19.670965 -0.272607 0.680330
v 19.670965 6.214513 0.680330
v 19.661358 -0.272607 0.777875
v 19.661358 6.214513 0.777875
v 19.632904 -0.272607 0.871671
v 19.632904 6.214513 0.871671
v 19.586700 -0.272607 0.958115
v 19.586700 6.214513 0.958115
v 19.524519 -0.272607 1.033883
v 19.524519 6.214513 1.033883
v 19.448750 -0.272607 1.096065
v 19.448750 6.214513 1.096065
v 19.362307 -0.272607 1.142270
v 19.362307 6.214513 1.142270
v 19.268511 -0.272607 1.170722
v 19.268511 6.214513 1.170722
v 19.170965 -0.272607 1.180330
v 19.170965 6.214513 1.180330
v 19.073420 -0.272607 1.170722
v 19.073420 6.214513 1.170722
v 18.979624 -0.272607 1.142269
v 18.979624 6.214513 1.142269
v 18.893179 -0.272607 1.096064
v 18.893179 6.214513 1.096064
v 18.817411 -0.272607 1.033883
v 18.817411 6.214513 1.033883
v 18.755230 -0.272607 0.958115
v 18.755230 6.214513 0.958115
v 18.709024 -0.272607 0.871671
v 18.709024 6.214513 0.871671
v 18.680573 -0.272607 0.777875
v 18.680573 6.214513 0.777875
v 18.670965 -0.272607 0.680329
v 18.670965 6.214513 0.680329
v 18.680573 -0.272607 0.582784
v 18.680573 6.214513 0.582784
v 18.709026 -0.272607 0.488988
v 18.709026 6.214513 0.488988
v 18.755230 -0.272607 0.402544
v 18.755230 6.214513 0.402544
v 18.817411 -0.272607 0.326776
v 18.817411 6.214513 0.326776
v 18.893181 -0.272607 0.264595
v 18.893181 6.214513 0.264595
v 18.979624 -0.272607 0.218390
v 18.979624 6.214513 0.218390
v 19.073421 -0.272607 0.189937
v 19.073421 6.214513 0.189937
vt 0.000000 0.000000
vt 1.000000 0.000000
vt 1.000000 1.000000
vt 0.000000 1.000000
vt 0.500000 1.000000
vt 0.597545 0.990393
vt 0.691342 0.961940
vt 0.777785 0.915735
vt 0.853553 0.853553
vt 0.915735 0.777785
vt 0.961940 0.691342
vt 0.990393 0.597545
vt 1.000000 0.500000
vt 0.990393 0.402455
vt 0.961940 0.308658
vt 0.915735 0.222215
vt 0.853553 0.146447
vt 0.777785 0.084265
vt 0.691342 0.038060
vt 0.597545 0.009607
vt 0.500000 0.000000
vt 0.402455 0.009607
vt 0.308658 0.038060
vt 0.222215 0.084265
vt 0.146446 0.146447
vt 0.084265 0.222215
vt 0.038060 0.308659
vt 0.009607 0.402455
vt 0.000000 0.500000
vt 0.009607 0.597546
vt 0.038060 0.691342
vt 0.084266 0.777786
vt 0.146447 0.853554
vt 0.222215 0.915735
vt 0.308659 0.961940
vt 0.402456 0.990393
vn 0.098000 0.000000 -0.995200
vn 0.290300 0.000000 -0.956900
vn 0.471400 0.000000 -0.881900
vn 0.634400 0.000000 -0.773000
vn 0.773000 0.000000 -0.634400
vn 0.881900 0.000000 -0.471400
vn 0.956900 0.000000 -0.290300
vn 0.995200 0.000000 -0.098000
vn 0.995200 0.000000 0.098000
vn 0.956900 0.000000 0.290300
vn 0.881900 0.000000 0.471400
vn 0.773000 0.000000 0.634400
vn 0.634400 0.000000 0.773000
vn 0.471400 0.000000 0.881900
vn 0.290300 0.000000 0.956900
vn 0.098000 0.000000 0.995200
vn -0.098000 0.000000 0.995200
vn -0.290300 0.000000 0.956900
vn -0.471400 0.000000 0.881900
vn -0.634400 0.000000 0.773000
vn -0.773000 0.000000 0.634400
vn -0.881900 0.000000 0.471400
vn -0.956900 0.000000 0.290300
vn -0.995200 0.000000 0.098000
vn -0.995200 0.000000 -0.098000
vn -0.956900 0.000000 -0.290300
vn -0.881900 0.000000 -0.471400
vn -0.773000 0.000000 -0.634400
vn -0.634400 0.000000 -0.773000
vn -0.471400 0.000000 -0.881900
vn 0.000000 1.000000 -0.000000
vn -0.098000 0.000000 -0.995200
vn -0.290300 0.000000 -0.956900
vn 0.000000 -1.000000 -0.000000
usemtl Material.001
s off
f 9/9/7 10/10/7 12/11/7 11/12/7
f 11/9/8 12/10/8 14/11/8 13/12/8
f 13/9/9 14/10/9 16/11/9 15/12/9
f 15/9/10 16/10/10 18/11/10 17/12/10
f 17/9/11 18/10/11 20/11/11 19/12/11
f 19/9/12 20/10/12 22/11/12 21/12/12
f 21/9/13 22/10/13 24/11/13 23/12/13
f 23/9/14 24/10/14 26/11/14 25/12/14
f 25/9/15 26/10/15 28/11/15 27/12/15
f 27/9/16 28/10/16 30/11/16 29/12/16
f 29/9/17 30/10/17 32/11/17 31/12/17
f 31/9/18 32/10/18 34/11/18 33/12/18
f 33/9/19 34/10/19 36/11/19 35/12/19
f 35/9/20 36/10/20 38/11/20 37/12/20
f 37/9/21 38/10/21 40/11/21 39/12/21
f 39/9/22 40/10/22 42/11/22 41/12/22
f 41/9/23 42/10/23 44/11/23 43/12/23
f 43/9/24 44/10/24 46/11/24 45/12/24
f 45/9/25 46/10/25 48/11/25 47/12/25
f 47/9/26 48/10/26 50/11/26 49/12/26
f 49/9/27 50/10/27 52/11/27 51/12/27
f 51/9/28 52/10/28 54/11/28 53/12/28
f 53/9/29 54/10/29 56/11/29 55/12/29
f 55/9/30 56/10/30 58/11/30 57/12/30
f 57/9/31 58/10/31 60/11/31 59/12/31
f 59/9/32 60/10/32 62/11/32 61/12/32
f 61/9/33 62/10/33 64/11/33 63/12/33
f 63/9/34 64/10/34 66/11/34 65/12/34
f 65/9/35 66/10/35 68/11/35 67/12/35
f 67/9/36 68/10/36 70/11/36 69/12/36
f 12/13/37 10/14/37 72/15/37 70/16/37 68/17/37 66/18/37 64/19/37 62/20/37 60/21/37 58/22/37 56/23/37 54/24/37 52/25/37 50/26/37 48/27/37 46/28/37 44/29/37 42/30/37 40/31/37 38/32/37 36/33/37 34/34/37 32/35/37 30/36/37 28/37/37 26/38/37 24/39/37 22/40/37 20/41/37 18/42/37 16/43/37 14/44/37
f 71/9/38 72/10/38 10/11/38 9/12/38
f 69/9/39 70/10/39 72/11/39 71/12/39
f 9/13/40 11/14/40 13/15/40 15/16/40 17/17/40 19/18/40 21/19/40 23/20/40 25/21/40 27/22/40 29/23/40 31/24/40 33/25/40 35/26/40 37/27/40 39/28/40 41/29/40 43/30/40 45/31/40 47/32/40 49/33/40 51/34/40 53/35/40 55/36/40 57/37/40 59/38/40 61/39/40 63/40/40 65/41/40 67/42/40 69/43/40 71/44/40
o Cylinder.001_Cylinder.002
v -18.755121 -0.272607 0.180330
v -18.755121 6.214513 0.180330
v -18.657576 -0.272607 0.189937
v -18.657576 6.214513 0.189937
v -18.563780 -0.272607 0.218390
v -18.563780 6.214513 0.218390
v -18.477337 -0.272607 0.264595
v -18.477337 6.214513 0.264595
v -18.401567 -0.272607 0.326776
v -18.401567 6.214513 0.326776
v -18.339386 -0.272607 0.402545
v -18.339386 6.214513 0.402545
v -18.293182 -0.272607 0.488988
v -18.293182 6.214513 0.488988
v -18.264729 -0.272607 0.582785
v -18.264729 6.214513 0.582785
v -18.255121 -0.272607 0.680330
v -18.255121 6.214513 0.680330
v -18.264729 -0.272607 0.777875
v -18.264729 6.214513 0.777875
v -18.293182 -0.272607 0.871671
v -18.293182 6.214513 0.871671
v -18.339386 -0.272607 0.958115
v -18.339386 6.214513 0.958115
v -18.401567 -0.272607 1.033883
v -18.401567 6.214513 1.033883
v -18.477337 -0.272607 1.096065
v -18.477337 6.214513 1.096065
v -18.563780 -0.272607 1.142270
v -18.563780 6.214513 1.142270
v -18.657576 -0.272607 1.170722
v -18.657576 6.214513 1.170722
v -18.755121 -0.272607 1.180330
v -18.755121 6.214513 1.180330
v -18.852667 -0.272607 1.170722
v -18.852667 6.214513 1.170722
v -18.946463 -0.272607 1.142269
v -18.946463 6.214513 1.142269
v -19.032907 -0.272607 1.096064
v -19.032907 6.214513 1.096064
v -19.108675 -0.272607 1.033883
v -19.108675 6.214513 1.033883
v -19.170856 -0.272607 0.958115
v -19.170856 6.214513 0.958115
v -19.217062 -0.272607 0.871671
v -19.217062 6.214513 0.871671
v -19.245514 -0.272607 0.777875
v -19.245514 6.214513 0.777875
v -19.255121 -0.272607 0.680329
v -19.255121 6.214513 0.680329
v -19.245514 -0.272607 0.582784
v -19.245514 6.214513 0.582784
v -19.217060 -0.272607 0.488988
v -19.217060 6.214513 0.488988
v -19.170856 -0.272607 0.402544
v -19.170856 6.214513 0.402544
v -19.108675 -0.272607 0.326776
v -19.108675 6.214513 0.326776
v -19.032906 -0.272607 0.264595
v -19.032906 6.214513 0.264595
v -18.946463 -0.272607 0.218390
v -18.946463 6.214513 0.218390
v -18.852665 -0.272607 0.189937
v -18.852665 6.214513 0.189937
vt 0.000000 0.000000
vt 1.000000 0.000000
vt 1.000000 1.000000
vt 0.000000 1.000000
vt 0.500000 1.000000
vt 0.597545 0.990393
vt 0.691342 0.961940
vt 0.777785 0.915735
vt 0.853553 0.853553
vt 0.915735 0.777785
vt 0.961940 0.691342
vt 0.990393 0.597545
vt 1.000000 0.500000
vt 0.990393 0.402455
vt 0.961940 0.308658
vt 0.915735 0.222215
vt 0.853553 0.146447
vt 0.777785 0.084265
vt 0.691342 0.038060
vt 0.597545 0.009607
vt 0.500000 0.000000
vt 0.402455 0.009607
vt 0.308658 0.038060
vt 0.222215 0.084265
vt 0.146446 0.146447
vt 0.084265 0.222215
vt 0.038060 0.308659
vt 0.009607 0.402455
vt 0.000000 0.500000
vt 0.009607 0.597546
vt 0.038060 0.691342
vt 0.084266 0.777786
vt 0.146447 0.853554
vt 0.222215 0.915735
vt 0.308659 0.961940
vt 0.402456 0.990393
vn 0.098000 0.000000 -0.995200
vn 0.290300 0.000000 -0.956900
vn 0.471400 0.000000 -0.881900
vn 0.634400 0.000000 -0.773000
vn 0.773000 0.000000 -0.634400
vn 0.881900 0.000000 -0.471400
vn 0.956900 0.000000 -0.290300
vn 0.995200 0.000000 -0.098000
vn 0.995200 0.000000 0.098000
vn 0.956900 0.000000 0.290300
vn 0.881900 0.000000 0.471400
vn 0.773000 0.000000 0.634400
vn 0.634400 0.000000 0.773000
vn 0.471400 0.000000 0.881900
vn 0.290300 0.000000 0.956900
vn 0.098000 0.000000 0.995200
vn -0.098000 0.000000 0.995200
vn -0.290300 0.000000 0.956900
vn -0.471400 0.000000 0.881900
vn -0.634400 0.000000 0.773000
vn -0.773000 0.000000 0.634400
vn -0.881900 0.000000 0.471400
vn -0.956900 0.000000 0.290300
vn -0.995200 0.000000 0.098000
vn -0.995200 0.000000 -0.098000
vn -0.956900 0.000000 -0.290300
vn -0.881900 0.000000 -0.471400
vn -0.773000 0.000000 -0.634400
vn -0.634400 0.000000 -0.773000
vn -0.471400 0.000000 -0.881900
vn 0.000000 1.000000 -0.000000
vn -0.098000 0.000000 -0.995200
vn -0.290300 0.000000 -0.956900
vn 0.000000 -1.000000 -0.000000
usemtl Material.002
s off
f 73/45/41 74/46/41 76/47/41 75/48/41
f 75/45/42 76/46/42 78/47/42 77/48/42
f 77/45/43 78/46/43 80/47/43 79/48/43
f 79/45/44 80/46/44 82/47/44 81/48/44
f 81/45/45 82/46/45 84/47/45 83/48/45
f 83/45/46 84/46/46 86/47/46 85/48/46
f 85/45/47 86/46/47 88/47/47 87/48/47
f 87/45/48 88/46/48 90/47/48 89/48/48
f 89/45/49 90/46/49 92/47/49 91/48/49
f 91/45/50 92/46/50 94/47/50 93/48/50
f 93/45/51 94/46/51 96/47/51 95/48/51
f 95/45/52 96/46/52 98/47/52 97/48/52
f 97/45/53 98/46/53 100/47/53 99/48/53
f 99/45/54 100/46/54 102/47/54 101/48/54
f 101/45/55 102/46/55 104/47/55 103/48/55
f 103/45/56 104/46/56 106/47/56 105/48/56
f 105/45/57 106/46/57 108/47/57 107/48/57
f 107/45/58 108/46/58 110/47/58 109/48/58
f 109/45/59 110/46/59 112/47/59 111/48/59
f 111/45/60 112/46/60 114/47/60 113/48/60
f 113/45/61 114/46/61 116/47/61 115/48/61
f 115/45/62 116/46/62 118/47/62 117/48/62
f 117/45/63 118/46/63 120/47/63 119/48/63
f 119/45/64 120/46/64 122/47/64 121/48/64
f 121/45/65 122/46/65 124/47/65 123/48/65
f 123/45/66 124/46/66 126/47/66 125/48/66
f 125/45/67 126/46/67 128/47/67 127/48/67
f 127/45/68 128/46/68 130/47/68 129/48/68
f 129/45/69 130/46/69 132/47/69 131/48/69
f 131/45/70 132/46/70 134/47/70 133/48/70
f 76/49/71 74/50/71 136/51/71 134/52/71 132/53/71 130/54/71 128/55/71 126/56/71 124/57/71 122/58/71 120/59/71 118/60/71 116/61/71 114/62/71 112/63/71 110/64/71 108/65/71 106/66/71 104/67/71 102/68/71 100/69/71 98/70/71 96/71/71 94/72/71 92/73/71 90/74/71 88/75/71 86/76/71 84/77/71 82/78/71 80/79/71 78/80/71
f 135/45/72 136/46/72 74/47/72 73/48/72
f 133/45/73 134/46/73 136/47/73 135/48/73
f 73/49/74 75/50/74 77/51/74 79/52/74 81/53/74 83/54/74 85/55/74 87/56/74 89/57/74 91/58/74 93/59/74 95/60/74 97/61/74 99/62/74 101/63/74 103/64/74 105/65/74 107/66/74 109/67/74 111/68/74 113/69/74 115/70/74 117/71/74 119/72/74 121/73/74 123/74/74 125/75/74 127/76/74 129/77/74 131/78/74 133/79/74 135/80/74
