# Blender v2.76 (sub 0) OBJ File: 'Race_Track.blend'
# www.blender.org
mtllib Race_Track.mtl
o Cube
v 20.000000 -0.200000 -19.999998
v 20.000000 -0.200000 20.000000
v -20.000002 -0.200000 19.999996
v -19.999992 -0.200000 -20.000008
v 20.000010 0.200000 -19.999989
v 19.999987 0.200000 20.000011
v -20.000008 0.200000 19.999992
v -19.999998 0.200000 -20.000000
vt 0.999900 0.999899
vt 0.000100 0.999900
vt 0.000100 0.000100
vt 0.999899 0.000100
vt 0.000000 0.000000
vn 0.000000 1.000000 -0.000000
vn 0.000000 -1.000000 0.000000
vn 1.000000 0.000000 0.000000
vn -0.000000 -0.000000 1.000000
vn -1.000000 -0.000000 -0.000000
vn 0.000000 0.000000 -1.000000
usemtl Texture
s off
f 5/1/1 8/2/1 7/3/1
f 6/4/1 5/1/1 7/3/1
usemtl Sides
f 1/5/2 2/5/2 3/5/2
f 5/5/3 6/5/3 2/5/3
f 2/5/4 6/5/4 7/5/4
f 7/5/5 8/5/5 4/5/5
f 5/5/6 1/5/6 4/5/6
f 3/5/4 2/5/4 7/5/4
f 1/5/3 5/5/3 2/5/3
f 8/5/6 5/5/6 4/5/6
f 3/5/5 7/5/5 4/5/5
f 4/5/2 1/5/2 3/5/2
